Coordinates
version=1
nRows=10
nColumns=46
inDegrees=yes

Units are S.I. units (second, meters, Newtons, ...)
Angles are in degrees.

endheader
time	pelvis_tilt	pelvis_list	pelvis_rotation	pelvis_tx	pelvis_ty	pelvis_tz	bb_angle	bb_tx	bb_ty	bb_tz	hip_flexion_r	hip_adduction_r	hip_rotation_r	knee_angle_r	knee_angle_r_beta	ankle_angle_r	subtalar_angle_r	mtp_angle_r	crank_angle_r	hip_flexion_l	hip_adduction_l	hip_rotation_l	knee_angle_l	knee_angle_l_beta	ankle_angle_l	subtalar_angle_l	mtp_angle_l	crank_angle_l	lumbar_extension	lumbar_bending	lumbar_rotation	arm_flex_r	arm_add_r	arm_rot_r	elbow_flex_r	pro_sup_r	wrist_flex_r	wrist_dev_r	arm_flex_l	arm_add_l	arm_rot_l	elbow_flex_l	pro_sup_l	wrist_flex_l	wrist_dev_l
      2.50000000	    -16.49592396	     -2.56644704	     -7.12599501	      0.18497277	      1.13599074	     -0.23409564	      0.00000000	      0.50000000	      0.00000000	      0.25000000	     67.17437927	      4.02676264	      4.57227461	     64.68850835	      1.12902746	     12.69029863	     -8.32502272	      0.00000000	      0.00000000	     53.72529372	     -8.75406729	      4.31710564	     76.54805715	      1.33601563	    -15.85322016	     -8.22166401	      0.00000000	      0.00000000	    -61.09272446	      0.62991748	      0.97640616	     89.42719570	     -2.43524117	     35.98601908	     46.92273687	     33.60823121	      0.00000000	      0.00000000	     89.23522168	    -25.25144582	     39.39575124	     47.36036444	     35.72738069	      0.00000000	      0.00000000
      2.50500000	    -16.21487488	     -2.23416041	     -6.38635101	      0.18476644	      1.13359751	     -0.23355788	      0.00000000	      0.50000000	      0.00000000	      0.25000000	     66.15405921	      3.33324735	      4.72314853	     63.16402724	      1.10242024	     11.31271367	     -8.75538150	      0.00000000	      0.00000000	     54.81285152	     -8.15780276	      4.61989729	     79.12569624	      1.38100392	    -14.54271200	     -7.33114372	      0.00000000	      0.00000000	    -60.94851160	      0.71396936	      0.11873720	     89.42736933	     -2.46898132	     36.58071912	     46.29151270	     33.57126325	      0.00000000	      0.00000000	     89.25621085	    -25.82731310	     40.39330552	     47.74667485	     35.90773978	      0.00000000	      0.00000000
      2.51000000	    -15.81209669	     -1.69271064	     -5.55628768	      0.18467437	      1.13165106	     -0.23312867	      0.00000000	      0.50000000	      0.00000000	      0.25000000	     64.96501225	      2.40009737	      4.99794329	     61.65353366	      1.07605716	     10.08711747	     -8.79809649	      0.00000000	      0.00000000	     55.70369623	     -7.31480006	      4.71365867	     81.51621856	      1.42272641	    -13.56356909	     -7.09219608	      0.00000000	      0.00000000	    -60.92407733	      0.64267481	     -0.81325940	     89.39414786	     -2.73925847	     36.74871128	     45.95374672	     33.53537904	      0.00000000	      0.00000000	     89.28304624	    -25.74175031	     40.70097884	     47.88617521	     35.95963659	      0.00000000	      0.00000000
      2.51500000	    -15.49317001	     -1.20954658	     -4.61955438	      0.18439219	      1.12963811	     -0.23254740	      0.00000000	      0.50000000	      0.00000000	      0.25000000	     63.78323835	      1.45917749	      5.17476769	     60.08471538	      1.04867611	      8.82570335	     -9.17797024	      0.00000000	      0.00000000	     56.73315618	     -6.46544330	      4.91783920	     83.89612057	      1.46426353	    -12.41085987	     -6.53410224	      0.00000000	      0.00000000	    -60.82601490	      0.68262078	     -1.79397870	     89.36612908	     -2.88505749	     37.47079400	     45.31289205	     33.50075999	      0.00000000	      0.00000000	     89.32111458	    -25.71946135	     41.02969460	     47.96308015	     35.99128619	      0.00000000	      0.00000000
      2.52000000	    -15.21254170	     -0.57076946	     -3.74061630	      0.18408011	      1.12791212	     -0.23164543	      0.00000000	      0.50000000	      0.00000000	      0.25000000	     62.53681493	      0.54970015	      5.65485918	     58.42043365	      1.01962892	      7.79684577	     -9.12530150	      0.00000000	      0.00000000	     57.73365733	     -5.60007561	      4.83168271	     86.11337374	      1.50296190	    -11.44775179	     -6.50809989	      0.00000000	      0.00000000	    -60.71277692	      0.51963126	     -2.81880399	     89.31953080	     -3.15757308	     37.65903016	     44.98910411	     33.48287090	      0.00000000	      0.00000000	     89.37613415	    -25.48314622	     41.12805258	     48.03881953	     36.01657408	      0.00000000	      0.00000000
      2.52500000	    -15.10428129	     -0.19034395	     -2.70438684	      0.18403687	      1.12590771	     -0.23105466	      0.00000000	      0.50000000	      0.00000000	      0.25000000	     61.41653928	     -0.38889246	      5.64695859	     56.80148250	      0.99137289	      6.34385640	     -9.89422112	      0.00000000	      0.00000000	     59.00248127	     -4.81607726	      5.14963115	     88.44370811	      1.54363391	     -9.93163446	     -5.38260611	      0.00000000	      0.00000000	    -60.28839128	      0.65341394	     -3.92005359	     89.41110344	     -3.34088403	     39.51038959	     43.60065622	     33.42901864	      0.00000000	      0.00000000	     89.38581964	    -25.33637511	     41.55249108	     47.54368475	     35.90895938	      0.00000000	      0.00000000
      2.53000000	    -14.96828574	      0.33945120	     -1.77126218	      0.18383504	      1.12447348	     -0.23041920	      0.00000000	      0.50000000	      0.00000000	      0.25000000	     60.17414056	     -1.32079176	      5.87942746	     55.06822036	      0.96112176	      5.11570733	    -10.25286391	      0.00000000	      0.00000000	     60.16649253	     -4.02618064	      5.14595022	     90.56219752	      1.58060852	     -8.81151935	     -4.92944656	      0.00000000	      0.00000000	    -59.97249944	      0.54229364	     -4.92495202	     89.41951957	     -3.63469447	     40.70510998	     42.52044456	     33.38501484	      0.00000000	      0.00000000	     89.42141373	    -24.78413140	     41.83936337	     47.05142375	     35.76731626	      0.00000000	      0.00000000
      2.53500000	    -14.77681441	      0.96329479	     -0.70434495	      0.18353704	      1.12343583	     -0.22988969	      0.00000000	      0.50000000	      0.00000000	      0.25000000	     58.82175781	     -2.45204357	      6.04652637	     53.31752568	      0.93056637	      3.84938272	    -10.58776064	      0.00000000	      0.00000000	     61.18953268	     -2.97624171	      5.11353199	     92.48789476	      1.61421828	     -7.69693265	     -4.78516760	      0.00000000	      0.00000000	    -59.78139943	      0.45366058	     -6.05853899	     89.40848185	     -3.86724632	     41.16865041	     41.75908713	     33.30553547	      0.00000000	      0.00000000	     89.45887922	    -24.18118364	     41.88600442	     46.71806317	     35.65085868	      0.00000000	      0.00000000
      2.54000000	    -14.69375523	      1.56359373	      0.24569860	      0.18315762	      1.12254294	     -0.22900669	      0.00000000	      0.50000000	      0.00000000	      0.25000000	     57.52037445	     -3.41358069	      6.28596365	     51.51978795	      0.89918993	      2.41729380	    -10.95673818	      0.00000000	      0.00000000	     62.36286715	     -2.19860534	      4.96654229	     94.37198094	      1.64710179	     -6.54443221	     -4.31174425	      0.00000000	      0.00000000	    -59.44809682	      0.25250296	     -7.19271658	     89.42794165	     -3.85781049	     42.14203516	     40.35974698	     33.15591213	      0.00000000	      0.00000000	     89.49119148	    -23.37891900	     41.75869654	     45.78909997	     35.32554072	      0.00000000	      0.00000000
      2.54500000	    -14.69624078	      2.25810589	      1.22502886	      0.18286696	      1.12200676	     -0.22823823	      0.00000000	      0.50000000	      0.00000000	      0.25000000	     56.25494083	     -4.52857666	      6.50657052	     49.71300538	      0.86765562	      1.40551818	    -10.76397546	      0.00000000	      0.00000000	     63.53301968	     -1.30400374	      4.68498691	     96.05618492	      1.67649669	     -5.56894205	     -4.26462447	      0.00000000	      0.00000000	    -59.22011631	      0.00224140	     -8.30973006	     89.38141736	     -4.12428571	     42.17961682	     40.03725680	     33.10603941	      0.00000000	      0.00000000	     89.51983189	    -22.86804499	     41.82815947	     45.79321426	     35.31043578	      0.00000000	      0.00000000
